<?xml version="1.0" standalone="no"?>
<!DOCTYPE svg PUBLIC "-//W3C//DTD SVG 20010904//EN"
 "http://www.w3.org/TR/2001/REC-SVG-20010904/DTD/svg10.dtd">
<svg version="1.0" xmlns="http://www.w3.org/2000/svg"
 width="420.000000pt" height="420.000000pt" viewBox="0 0 420.000000 420.000000"
 preserveAspectRatio="xMidYMid meet">
<metadata>
Created by potrace 1.14, written by Peter Selinger 2001-2017
</metadata>
<g transform="translate(0.000000,420.000000) scale(0.100000,-0.100000)"
fill="#000000" stroke="none">
<path d="M1938 3635 c-63 -17 -123 -49 -172 -91 -22 -19 -43 -34 -47 -34 -3 0
-27 9 -51 20 -80 35 -160 41 -265 20 -62 -13 -223 -84 -223 -99 0 -5 -9 -13
-21 -16 -19 -6 -152 -133 -194 -186 -41 -52 -85 -118 -85 -128 0 -6 -4 -11
-10 -11 -5 0 -10 -6 -10 -14 0 -7 -8 -24 -19 -37 -10 -13 -18 -26 -18 -29 0
-3 -9 -25 -21 -50 -35 -78 -51 -120 -46 -120 2 0 -2 -13 -11 -30 -9 -16 -13
-30 -10 -30 3 0 1 -8 -4 -17 -8 -16 -13 -39 -26 -108 -2 -11 -6 -33 -9 -50 -7
-41 -13 -95 -21 -185 -6 -80 -12 -135 -21 -215 -7 -62 -9 -79 -29 -175 -2 -14
-7 -38 -10 -55 -3 -16 -7 -41 -10 -55 -5 -23 -11 -63 -19 -130 -2 -14 -6 -32
-9 -40 -50 -129 -62 -200 -61 -355 1 -135 6 -174 40 -293 29 -99 75 -194 147
-305 75 -114 101 -162 128 -237 12 -36 35 -85 51 -109 29 -46 44 -115 34 -149
-4 -11 -19 -23 -34 -27 -15 -3 -37 -13 -49 -20 -29 -19 -21 -45 32 -99 23 -24
45 -52 49 -61 6 -17 -13 -75 -25 -75 -11 0 -6 -30 5 -32 55 -7 138 -3 175 8
25 8 69 17 96 20 28 3 84 17 125 30 56 19 79 23 95 15 120 -60 336 -28 430 63
41 40 45 42 45 23 0 -8 9 -24 19 -36 16 -18 30 -22 82 -22 89 -1 168 31 230
91 l48 47 16 -23 c8 -13 15 -27 15 -33 0 -17 73 -38 117 -34 93 7 150 58 183
160 l13 43 37 -38 c70 -71 171 -88 260 -44 42 20 88 72 83 92 -2 5 16 2 40 -6
80 -30 247 -12 247 26 0 13 -31 46 -39 42 -3 -2 -7 1 -9 6 -1 5 9 13 24 16 65
17 156 86 193 148 20 33 20 37 6 52 -9 9 -28 16 -43 17 -89 2 -125 21 -154 81
-23 47 -25 60 -23 172 2 66 5 132 9 146 3 14 8 36 11 49 6 33 15 39 29 18 7
-9 18 -17 24 -17 5 0 13 -7 16 -16 3 -8 10 -13 15 -10 5 3 14 -1 21 -9 7 -8
16 -13 20 -10 5 3 11 2 14 -3 5 -8 76 -16 76 -8 0 2 -18 24 -39 48 -44 48 -67
111 -58 161 11 58 15 74 26 93 25 45 89 184 85 184 -3 0 2 12 10 28 31 53 46
152 42 272 -6 174 -53 326 -154 497 -26 44 -67 114 -92 157 -85 147 -325 527
-390 618 -57 80 -224 260 -288 311 -41 32 -139 97 -147 97 -4 0 -21 10 -38 22
-18 13 -32 21 -32 19 0 -2 -18 4 -40 14 -22 9 -44 18 -50 19 -5 1 -14 4 -20 8
-5 3 -23 9 -40 12 -16 3 -41 9 -55 12 -56 12 -177 12 -222 -1z"/>
</g>
</svg>
